<svg xmlns="http://www.w3.org/2000/svg" width="36" height="36" viewBox="0 0 36 36"><defs><clipPath id="clip-path"><path id="Trazado_1383" d="M324.076-1034.592a7.523 7.523 0 0 1-4.193-1.492s2.062-2.875 4.717-3.166c2.307-.255 3.6.764 3.705 1.6.07.836-.839 2.911-4.228 3.057m-10.238 2.183c-3.39 1.128-4.822-.545-5.067-1.347s.245-2.074 2.8-2.8c2.514-.727 5.558 1.274 5.558 1.274a7.271 7.271 0 0 1-3.284 2.874M324.6-1043c-5.558.073-6.744 5.641-6.744 5.641-1.957-1.965-3.878-2.985-6.674-2.693a6.1 6.1 0 0 0-5.171 5.021 6.019 6.019 0 0 0 6.185 5.931c4.438 0 6.289-4.84 6.289-4.84a7.558 7.558 0 0 0 6.01 2.766c5-.109 6.429-3.566 6.674-5.277.245-2.038-1.014-6.659-6.569-6.55" class="cls-1" transform="translate(-306 1043)"/></clipPath><clipPath id="clip-path-2"><path id="Trazado_1382" d="M0-141.59h1668.285V-1080H0z" class="cls-1" transform="translate(0 1080)"/></clipPath><style>.cls-1{fill:#fff}</style></defs><g id="imagotipo_woonkly" transform="translate(-67 -21)"><circle id="Elipse_34" cx="18" cy="18" r="18" fill="#2d3055" transform="translate(67 21)"/><g id="Grupo_2667" clip-path="url(#clip-path)" transform="translate(72.595 31.518)"><g id="Grupo_2666" clip-path="url(#clip-path-2)" transform="translate(-265.883 -32.149)"><g id="Grupo_2665"><path id="Trazado_1381" d="M-306-37h1668.286v938.41H-306z" class="cls-1" transform="translate(306 37)"/></g></g></g></g></svg>