<svg xmlns="http://www.w3.org/2000/svg" xmlns:xlink="http://www.w3.org/1999/xlink" width="138" height="36.726" viewBox="0 0 138 36.726"><defs><clipPath id="clip-path"><path id="Trazado_148" d="M290.988-1023.855l-4.988-21.1h5.083l1.575 8.672c.462 2.546.924 5.24 1.248 7.419h.046c.324-2.318.832-4.868 1.386-7.463l1.756-8.625h5.037l1.663 8.9c.462 2.458.832 4.731 1.109 7.048h.046c.324-2.364.788-4.822 1.2-7.375l1.706-8.625h4.852l-5.406 21.1h-5.13l-1.756-9.089c-.416-2.133-.739-4.081-1.017-6.493h-.046c-.37 2.365-.739 4.358-1.2 6.538l-1.987 9.044h-5.178z" class="cls-1" transform="translate(-286 1045)"/></clipPath><clipPath id="clip-path-2"><path id="Trazado_147" d="M0 121.935h2136.774V-1080H0z" class="cls-1" transform="translate(0 1080)"/></clipPath><clipPath id="clip-path-3"><path id="Trazado_151" d="M335.137-1034.821q0-2.843-.137-4.853h4.074l.229 2.126h.092a5.428 5.428 0 0 1 4.67-2.45c3.068 0 5.4 2.08 5.4 6.563v9.016h-4.716v-8.46c0-1.988-.687-3.325-2.38-3.325a2.688 2.688 0 0 0-2.427 1.756 3.215 3.215 0 0 0-.137 1.2v8.78h-4.716v-10.353z" class="cls-1" transform="translate(-335 1040)"/></clipPath><clipPath id="clip-path-5"><path id="Trazado_154" d="M353.79-1031.907h.047a18.951 18.951 0 0 1 1.116-1.948l3.115-4.81h5.723l-5.487 6.512 6.278 9.524h-5.859l-3.72-6.608-1.209 1.555v5.006H349V-1046h4.79z" class="cls-1" transform="translate(-349 1046)"/></clipPath><clipPath id="clip-path-7"><path id="Trazado_156" d="M363-1022.629h4.452V-1046H363z" class="cls-1" transform="translate(-363 1046)"/></clipPath><clipPath id="clip-path-8"><path id="Trazado_159" d="M371.468-1040l2.371 7.953c.242.924.581 2.147.774 2.977h.1c.242-.879.484-2.1.726-3.025l1.935-7.9h5.322l-3.678 10.587c-2.274 6.441-3.822 8.978-5.613 10.588a8.772 8.772 0 0 1-4.791 2.2l-1.065-4.2a8.472 8.472 0 0 0 2.178-.879 5.844 5.844 0 0 0 2.081-2 1.627 1.627 0 0 0 .242-.732 2.425 2.425 0 0 0-.193-.831L366-1040z" class="cls-1" transform="translate(-366 1040)"/></clipPath><clipPath id="clip-path-10"><path id="Trazado_163" d="M329.152-1032.23a9.633 9.633 0 0 1-5.37-1.911s2.641-3.682 6.042-4.055c2.954-.326 4.61.978 4.746 2.051.09 1.072-1.075 3.728-5.415 3.915m-13.113 2.8c-4.341 1.445-6.176-.7-6.49-1.725s.314-2.656 3.58-3.589c3.22-.932 7.118 1.631 7.118 1.631a9.312 9.312 0 0 1-4.207 3.681m13.78-13.568c-7.118.094-8.638 7.225-8.638 7.225-2.507-2.517-4.968-3.823-8.548-3.449s-6.44 3.775-6.624 6.431a7.709 7.709 0 0 0 7.922 7.6c5.684 0 8.056-6.2 8.056-6.2a9.681 9.681 0 0 0 7.7 3.542c6.4-.139 8.234-4.567 8.548-6.759.314-2.61-1.3-8.529-8.414-8.389" class="cls-2" transform="translate(-306 1043)"/></clipPath><clipPath id="clip-path-11"><path id="Trazado_162" d="M0 121.935h2136.774V-1080H0z" class="cls-2" transform="translate(0 1080)"/></clipPath><clipPath id="clip-path-12"><path id="Trazado_167" d="M257.911-1023.067A.923.923 0 0 1 257-1024v-18.018a.923.923 0 0 1 .911-.93h10.445a28.164 28.164 0 0 0-2.92-4.537 2.588 2.588 0 0 1-2.108 1.1 2.571 2.571 0 0 1-1.835-.776 2.673 2.673 0 0 1-.76-1.872 2.677 2.677 0 0 1 2.179-2.6h.906a2.621 2.621 0 0 1 2.06 2.1v.995a2.661 2.661 0 0 1-.177.578 27.157 27.157 0 0 1 3.2 5.006h6.299a24.894 24.894 0 0 1 3.329-5.333 2.687 2.687 0 0 1-.224-1.076 2.641 2.641 0 0 1 .751-1.88 2.54 2.54 0 0 1 1.844-.757 2.607 2.607 0 0 1 2.549 2.151v.995a2.62 2.62 0 0 1-2.063 2.1h-.976a2.582 2.582 0 0 1-1.623-1.065 24.931 24.931 0 0 0-3.1 4.878h10.494a.837.837 0 0 1 .632.271.874.874 0 0 1 .23.659v18.018a.922.922 0 0 1-.911.928zm9.014-12.678a4.4 4.4 0 0 0-3.733 3.529 4.367 4.367 0 0 0 1.372 3.044 4.2 4.2 0 0 0 3.09 1.136c3.233 0 4.553-3.437 4.553-3.437a5.63 5.63 0 0 0 4.326 1.951c3.6-.047 4.644-2.509 4.78-3.716.183-1.44-.729-4.691-4.735-4.6a5.135 5.135 0 0 0-4.872 3.993 5.549 5.549 0 0 0-4.162-1.934c-.2 0-.406.011-.619.031zm-1.73 4.411c-.182-.6.183-1.486 2-2 1.822-.465 4.007.879 4.007.879a5.208 5.208 0 0 1-2.367 2.043 4.8 4.8 0 0 1-1.552.292 2.049 2.049 0 0 1-2.091-1.218zm7.968-1.626a6.045 6.045 0 0 1 3.415-2.228c1.638-.187 2.595.511 2.686 1.114.045.6-.592 2.09-3.051 2.182h-.1a5.568 5.568 0 0 1-2.952-1.066z" class="cls-2" transform="translate(-257 1052)"/></clipPath><linearGradient id="linear-gradient" x1=".159" x2=".159" y1=".034" y2=".982" gradientUnits="objectBoundingBox"><stop offset="0"/><stop offset="0" stop-color="#00d3ff"/><stop offset=".1" stop-color="#00beed"/><stop offset=".2" stop-color="#00a9db"/><stop offset=".3" stop-color="#0194c9"/><stop offset=".4" stop-color="#017fb7"/><stop offset=".5" stop-color="#016aa4"/><stop offset=".6" stop-color="#015492"/><stop offset=".7" stop-color="#013f80"/><stop offset=".8" stop-color="#022a6e"/><stop offset=".9" stop-color="#02155c"/><stop offset="1" stop-color="#02004a"/><stop offset="1"/></linearGradient><linearGradient id="linear-gradient-2" x1=".176" x2=".13" y1=".056" y2=".042" gradientUnits="objectBoundingBox"><stop offset="0" stop-color="#00d3ff"/><stop offset=".1" stop-color="#00beed"/><stop offset=".2" stop-color="#00a9db"/><stop offset=".3" stop-color="#0194c9"/><stop offset=".4" stop-color="#017fb7"/><stop offset=".5" stop-color="#016aa4"/><stop offset=".6" stop-color="#015492"/><stop offset=".7" stop-color="#013f80"/><stop offset=".8" stop-color="#022a6e"/><stop offset=".9" stop-color="#02155c"/><stop offset="1" stop-color="#02004a"/></linearGradient><linearGradient id="linear-gradient-3" x1=".134" x2=".134" y1=".026" y2=".974" xlink:href="#linear-gradient"/><linearGradient id="linear-gradient-4" x1=".143" x2=".131" y1=".051" y2=".019" xlink:href="#linear-gradient-2"/><style>.cls-1{fill:#292a46}.cls-2{fill:none}.cls-4{clip-path:url(#clip-path-2)}.cls-10{clip-path:url(#clip-path-11)}.cls-11{opacity:0}</style></defs><g id="logo_woonkly" transform="translate(-278 -29)"><g id="Grupo_1148" transform="translate(278 29)"><g id="Grupo_191" clip-path="url(#clip-path)" transform="translate(32.274 7.79)"><g id="Grupo_190" class="cls-4" transform="translate(-318.29 -38.952)"><path id="Trazado_146" d="M281-1050h37.839v32.274H281z" class="cls-1" transform="translate(31.726 1083.387)"/></g></g><g id="Grupo_193" clip-path="url(#clip-path-3)" transform="translate(86.806 13.355)"><g id="Grupo_192" class="cls-4" transform="translate(-372.823 -44.517)"><path id="Trazado_149" d="M330-1045h25.6v26.71H330z" class="cls-1" transform="translate(37.258 1083.952)"/></g></g><g id="Grupo_195" clip-path="url(#clip-path-5)" transform="translate(102.387 6.678)"><g id="Grupo_194" class="cls-4" transform="translate(-388.403 -37.839)"><path id="Trazado_152" d="M344-1051h26.71v34.5H344z" class="cls-1" transform="translate(38.839 1083.274)"/></g></g><g id="Grupo_196" clip-path="url(#clip-path-7)" transform="translate(117.968 6.678)"><path id="Trazado_155" d="M358-1051h15.581v34.5H358z" class="cls-1" transform="translate(-363.565 1045.435)"/></g><g id="Grupo_198" clip-path="url(#clip-path-8)" transform="translate(121.306 13.355)"><g id="Grupo_197" class="cls-4" transform="translate(-407.323 -44.516)"><path id="Trazado_157" d="M361-1045h27.823v34.5H361z" class="cls-1" transform="translate(40.758 1083.952)"/></g></g><g id="Grupo_203" clip-path="url(#clip-path-10)" transform="translate(54.532 10.016)"><g id="Grupo_202" class="cls-10" transform="translate(-340.548 -41.177)"><g id="Grupo_200" class="cls-11"><g id="Grupo_199"><path id="Trazado_160" fill="url(#linear-gradient)" d="M-306-37h2136.774v1201.935H-306z" transform="translate(306 37)"/></g></g><g id="Grupo_201"><path id="Trazado_161" fill="url(#linear-gradient-2)" d="M-306-37h2136.774v1201.935H-306z" transform="translate(306 37)"/></g></g></g><g id="Grupo_208" clip-path="url(#clip-path-12)"><g id="Grupo_207" class="cls-10" transform="translate(-286.016 -31.161)"><g id="Grupo_205" class="cls-11"><g id="Grupo_204"><path id="Trazado_164" fill="url(#linear-gradient-3)" d="M-257-28h2136.774v1201.935H-257z" transform="translate(257 28)"/></g></g><g id="Grupo_206"><path id="Trazado_165" fill="url(#linear-gradient-4)" d="M-257-28h2136.774v1201.935H-257z" transform="translate(257 28)"/></g></g></g></g></g></svg>