<svg xmlns="http://www.w3.org/2000/svg" xmlns:xlink="http://www.w3.org/1999/xlink" width="136.645" height="36.365" viewBox="0 0 136.645 36.365">
  <defs>
    <clipPath id="clip-path">
      <path id="Trazado_148" data-name="Trazado 148" d="M290.939-1024.062,286-1044.953h5.033l1.559,8.586c.457,2.521.915,5.188,1.236,7.346h.046c.32-2.3.824-4.82,1.372-7.39l1.739-8.54h4.988l1.646,8.816c.457,2.434.824,4.685,1.1,6.979h.046c.321-2.341.78-4.775,1.19-7.3l1.689-8.54h4.8l-5.353,20.892h-5.08l-1.739-9c-.412-2.112-.732-4.041-1.007-6.429h-.046c-.367,2.341-.732,4.315-1.19,6.473l-1.968,8.956h-5.127Z" transform="translate(-286 1045)" fill="#fff"/>
    </clipPath>
    <clipPath id="clip-path-2">
      <path id="Trazado_147" data-name="Trazado 147" d="M0,110.135H2115.8V-1080H0Z" transform="translate(0 1080)" fill="#fff"/>
    </clipPath>
    <clipPath id="clip-path-3">
      <path id="Trazado_151" data-name="Trazado 151" d="M335.136-1034.872q0-2.814-.136-4.806h4.034l.227,2.1h.091a5.374,5.374,0,0,1,4.624-2.425c3.038,0,5.35,2.059,5.35,6.5v8.927h-4.669v-8.377c0-1.968-.68-3.293-2.357-3.293a2.662,2.662,0,0,0-2.4,1.739,3.186,3.186,0,0,0-.136,1.19v8.694h-4.67v-10.252Z" transform="translate(-335 1040)" fill="#fff"/>
    </clipPath>
    <clipPath id="clip-path-5">
      <path id="Trazado_154" data-name="Trazado 154" d="M353.743-1032.046h.046a18.836,18.836,0,0,1,1.1-1.928l3.085-4.763h5.667l-5.433,6.448,6.216,9.431h-5.8l-3.683-6.543-1.2,1.539v4.957H349V-1046h4.743Z" transform="translate(-349 1046)" fill="#fff"/>
    </clipPath>
    <clipPath id="clip-path-7">
      <path id="Trazado_156" data-name="Trazado 156" d="M363-1022.858h4.408V-1046H363Z" transform="translate(-363 1046)" fill="#fff"/>
    </clipPath>
    <clipPath id="clip-path-8">
      <path id="Trazado_159" data-name="Trazado 159" d="M371.414-1040l2.348,7.874c.24.915.575,2.126.767,2.948h.1c.239-.871.479-2.078.719-3L377.26-1040h5.27l-3.642,10.483c-2.252,6.378-3.785,8.89-5.558,10.484a8.684,8.684,0,0,1-4.744,2.174l-1.054-4.154a8.389,8.389,0,0,0,2.156-.871,5.785,5.785,0,0,0,2.06-1.98,1.61,1.61,0,0,0,.239-.726,2.4,2.4,0,0,0-.191-.823L366-1040Z" transform="translate(-366 1040)" fill="#fff"/>
    </clipPath>
    <clipPath id="clip-path-10">
      <path id="Trazado_163" data-name="Trazado 163" d="M328.925-1032.337a9.537,9.537,0,0,1-5.318-1.892s2.615-3.645,5.983-4.016c2.925-.323,4.565.969,4.7,2.031.089,1.061-1.064,3.692-5.362,3.876m-12.985,2.77c-4.3,1.43-6.116-.692-6.426-1.709s.311-2.63,3.545-3.553c3.189-.923,7.049,1.615,7.049,1.615a9.224,9.224,0,0,1-4.165,3.646M329.59-1043c-7.049.092-8.553,7.154-8.553,7.154-2.482-2.492-4.919-3.785-8.464-3.415s-6.377,3.738-6.559,6.368a7.633,7.633,0,0,0,7.844,7.522c5.628,0,7.977-6.138,7.977-6.138a9.586,9.586,0,0,0,7.623,3.507c6.337-.138,8.154-4.522,8.464-6.692.311-2.584-1.286-8.446-8.331-8.307" transform="translate(-306 1043)" fill="none"/>
    </clipPath>
    <clipPath id="clip-path-11">
      <path id="Trazado_162" data-name="Trazado 162" d="M0,110.135H2115.8V-1080H0Z" transform="translate(0 1080)" fill="none"/>
    </clipPath>
    <linearGradient id="linear-gradient" x1="0.159" y1="0.034" x2="0.159" y2="0.982" gradientUnits="objectBoundingBox">
      <stop offset="0"/>
      <stop offset="0" stop-color="#00d3ff"/>
      <stop offset="0.1" stop-color="#00beed"/>
      <stop offset="0.2" stop-color="#00a9db"/>
      <stop offset="0.3" stop-color="#0194c9"/>
      <stop offset="0.4" stop-color="#017fb7"/>
      <stop offset="0.5" stop-color="#016aa4"/>
      <stop offset="0.6" stop-color="#015492"/>
      <stop offset="0.7" stop-color="#013f80"/>
      <stop offset="0.8" stop-color="#022a6e"/>
      <stop offset="0.9" stop-color="#02155c"/>
      <stop offset="1" stop-color="#02004a"/>
      <stop offset="1"/>
    </linearGradient>
    <linearGradient id="linear-gradient-2" x1="0.176" y1="0.056" x2="0.13" y2="0.042" gradientUnits="objectBoundingBox">
      <stop offset="0" stop-color="#00d3ff"/>
      <stop offset="0.1" stop-color="#00beed"/>
      <stop offset="0.2" stop-color="#00a9db"/>
      <stop offset="0.3" stop-color="#0194c9"/>
      <stop offset="0.4" stop-color="#017fb7"/>
      <stop offset="0.5" stop-color="#016aa4"/>
      <stop offset="0.6" stop-color="#015492"/>
      <stop offset="0.7" stop-color="#013f80"/>
      <stop offset="0.8" stop-color="#022a6e"/>
      <stop offset="0.9" stop-color="#02155c"/>
      <stop offset="1" stop-color="#02004a"/>
    </linearGradient>
    <clipPath id="clip-path-12">
      <path id="Trazado_167" data-name="Trazado 167" d="M257.9-1023.351a.914.914,0,0,1-.9-.92v-17.841a.914.914,0,0,1,.9-.921h10.343a27.9,27.9,0,0,0-2.891-4.493,2.562,2.562,0,0,1-2.087,1.091,2.544,2.544,0,0,1-1.817-.769,2.646,2.646,0,0,1-.752-1.853,2.65,2.65,0,0,1,2.158-2.574h.9a2.6,2.6,0,0,1,2.039,2.083v.985a2.641,2.641,0,0,1-.175.572,26.893,26.893,0,0,1,3.172,4.956h6.231a24.643,24.643,0,0,1,3.3-5.281,2.661,2.661,0,0,1-.222-1.065,2.616,2.616,0,0,1,.744-1.862,2.513,2.513,0,0,1,1.826-.759,2.581,2.581,0,0,1,2.524,2.13v.985a2.594,2.594,0,0,1-2.043,2.081h-.966a2.559,2.559,0,0,1-1.607-1.054,24.675,24.675,0,0,0-3.066,4.83H285.9a.828.828,0,0,1,.626.267.866.866,0,0,1,.227.653v17.841a.913.913,0,0,1-.9.919Zm8.926-12.554a4.358,4.358,0,0,0-3.7,3.495,4.326,4.326,0,0,0,1.358,3.014,4.16,4.16,0,0,0,3.059,1.125c3.2,0,4.508-3.4,4.508-3.4a5.572,5.572,0,0,0,4.284,1.932c3.561-.047,4.6-2.484,4.733-3.68.181-1.425-.721-4.645-4.688-4.552a5.085,5.085,0,0,0-4.824,3.954,5.5,5.5,0,0,0-4.121-1.916c-.2,0-.4.011-.613.031Zm-1.713,4.368c-.18-.6.181-1.471,1.984-1.977,1.8-.461,3.968.87,3.968.87a5.155,5.155,0,0,1-2.344,2.023,4.742,4.742,0,0,1-1.537.289,2.029,2.029,0,0,1-2.071-1.205Zm7.89-1.61a5.985,5.985,0,0,1,3.381-2.206c1.622-.185,2.569.506,2.66,1.1.044.6-.587,2.069-3.021,2.161h-.1a5.512,5.512,0,0,1-2.923-1.056Z" transform="translate(-257 1052)" fill="none"/>
    </clipPath>
    <linearGradient id="linear-gradient-3" x1="0.134" y1="0.026" x2="0.134" y2="0.974" xlink:href="#linear-gradient"/>
    <linearGradient id="linear-gradient-4" x1="0.143" y1="0.051" x2="0.131" y2="0.019" xlink:href="#linear-gradient-2"/>
  </defs>
  <g id="logo_woonkly" data-name="logo woonkly" transform="translate(-278 -29)">
    <g id="Grupo_1148" data-name="Grupo 1148" transform="translate(278 29)">
      <g id="Grupo_191" data-name="Grupo 191" transform="translate(31.957 7.714)" clip-path="url(#clip-path)">
        <g id="Grupo_190" data-name="Grupo 190" transform="translate(-315.165 -38.569)" clip-path="url(#clip-path-2)">
          <path id="Trazado_146" data-name="Trazado 146" d="M281-1050h37.467v31.957H281Z" transform="translate(28.655 1083.059)" fill="#fff"/>
        </g>
      </g>
      <g id="Grupo_193" data-name="Grupo 193" transform="translate(85.954 13.224)" clip-path="url(#clip-path-3)">
        <g id="Grupo_192" data-name="Grupo 192" transform="translate(-369.162 -44.079)" clip-path="url(#clip-path-2)">
          <path id="Trazado_149" data-name="Trazado 149" d="M330-1045h25.345v26.447H330Z" transform="translate(33.652 1083.569)" fill="#fff"/>
        </g>
      </g>
      <g id="Grupo_195" data-name="Grupo 195" transform="translate(101.382 6.612)" clip-path="url(#clip-path-5)">
        <g id="Grupo_194" data-name="Grupo 194" transform="translate(-384.59 -37.467)" clip-path="url(#clip-path-2)">
          <path id="Trazado_152" data-name="Trazado 152" d="M344-1051h26.448v34.161H344Z" transform="translate(35.08 1082.957)" fill="#fff"/>
        </g>
      </g>
      <g id="Grupo_196" data-name="Grupo 196" transform="translate(116.81 6.612)" clip-path="url(#clip-path-7)">
        <path id="Trazado_155" data-name="Trazado 155" d="M358-1051h15.428v34.161H358Z" transform="translate(-363.51 1045.49)" fill="#fff"/>
      </g>
      <g id="Grupo_198" data-name="Grupo 198" transform="translate(120.115 13.224)" clip-path="url(#clip-path-8)">
        <g id="Grupo_197" data-name="Grupo 197" transform="translate(-403.323 -44.079)" clip-path="url(#clip-path-2)">
          <path id="Trazado_157" data-name="Trazado 157" d="M361-1045h27.549v34.161H361Z" transform="translate(36.814 1083.569)" fill="#fff"/>
        </g>
      </g>
      <g id="Grupo_203" data-name="Grupo 203" transform="translate(53.997 9.918)" clip-path="url(#clip-path-10)">
        <g id="Grupo_202" data-name="Grupo 202" transform="translate(-337.205 -40.773)" clip-path="url(#clip-path-11)">
          <g id="Grupo_200" data-name="Grupo 200" opacity="0">
            <g id="Grupo_199" data-name="Grupo 199">
              <path id="Trazado_160" data-name="Trazado 160" d="M-306-37H1809.8V1153.135H-306Z" transform="translate(306 37)" fill="url(#linear-gradient)"/>
            </g>
          </g>
          <g id="Grupo_201" data-name="Grupo 201">
            <path id="Trazado_161" data-name="Trazado 161" d="M-306-37H1809.8V1153.135H-306Z" transform="translate(306 37)" fill="url(#linear-gradient-2)"/>
          </g>
        </g>
      </g>
      <g id="Grupo_208" data-name="Grupo 208" clip-path="url(#clip-path-12)">
        <g id="Grupo_207" data-name="Grupo 207" transform="translate(-283.208 -30.855)" clip-path="url(#clip-path-11)">
          <g id="Grupo_205" data-name="Grupo 205" opacity="0">
            <g id="Grupo_204" data-name="Grupo 204">
              <path id="Trazado_164" data-name="Trazado 164" d="M-257-28H1858.795V1162.135H-257Z" transform="translate(257 28)" fill="url(#linear-gradient-3)"/>
            </g>
          </g>
          <g id="Grupo_206" data-name="Grupo 206">
            <path id="Trazado_165" data-name="Trazado 165" d="M-257-28H1858.795V1162.135H-257Z" transform="translate(257 28)" fill="url(#linear-gradient-4)"/>
          </g>
        </g>
      </g>
    </g>
  </g>
</svg>
