<svg xmlns="http://www.w3.org/2000/svg" id="bnb" width="42.108" height="42.108" viewBox="0 0 42.108 42.108"><path id="Trazado_171" fill="#f3ba2f" d="M12.882,17.694,21.06,9.517,29.241,17.7,34,12.94,21.06,0,8.124,12.936l4.758,4.758M.006,21.053l4.758-4.758,4.758,4.758L4.764,25.811Zm12.876,3.36,8.177,8.177,8.181-8.181L34,29.165l0,0L21.06,42.108,8.124,29.172l-.007-.007,4.765-4.752M32.6,21.056,37.356,16.3l4.758,4.758-4.758,4.758Z" data-name="Trazado 171" transform="translate(-0.006)"/><path id="Trazado_172" fill="#f3ba2f" d="M780.207,775.378h0l-4.828-4.828-3.568,3.569h0l-.41.41-.845.846-.007.006.007.007,4.824,4.824,4.828-4.828,0,0,0,0" data-name="Trazado 172" transform="translate(-754.327 -754.327)"/></svg>