<svg xmlns="http://www.w3.org/2000/svg" width="25.49" height="20.694" viewBox="0 0 25.49 20.694"><defs><linearGradient id="1752gopo3a" x1=".319" x2=".865" y2="1" gradientUnits="objectBoundingBox"><stop offset="0" stop-color="#ff776c"/><stop offset="1" stop-color="#f74334"/></linearGradient></defs><g><path fill="url(#1752gopo3a)" d="M22.425 6.965H18.74v-.379a3.065 3.065 0 0 0-3.064-3.064H9.814A3.065 3.065 0 0 0 6.75 6.586v.379H3.064A3.064 3.064 0 0 0 0 10.029v11.123a3.065 3.065 0 0 0 3.064 3.064h19.362a3.065 3.065 0 0 0 3.064-3.064V10.029a3.066 3.066 0 0 0-3.065-3.064zm-9.681 14.072a5.788 5.788 0 1 1 5.788-5.788 5.794 5.794 0 0 1-5.788 5.788zm3.064-5.788a3.064 3.064 0 1 1-3.064-3.064 3.069 3.069 0 0 1 3.064 3.064z" transform="translate(0 -3.522)"/></g></svg>