<svg xmlns="http://www.w3.org/2000/svg" width="23.051" height="22.955" viewBox="0 0 23.051 22.955">
  <g id="moon" transform="translate(0 -0.652)">
    <g id="Grupo_1828" data-name="Grupo 1828" transform="translate(0 0.652)">
      <path id="Trazado_1326" data-name="Trazado 1326" d="M22.49,13.733a.811.811,0,0,0-.678.147,8.648,8.648,0,0,1-2.623,1.533,8.215,8.215,0,0,1-2.977.531A8.655,8.655,0,0,1,7.546,7.278a9.084,9.084,0,0,1,.472-2.859A7.915,7.915,0,0,1,9.432,1.884.752.752,0,0,0,9.314.822.811.811,0,0,0,8.636.675,11.894,11.894,0,0,0,2.388,4.861,11.671,11.671,0,1,0,23.02,14.646.715.715,0,0,0,22.49,13.733Z" transform="translate(0 -0.652)" fill="#d0d0d0"/>
    </g>
  </g>
</svg>
