<svg xmlns="http://www.w3.org/2000/svg" width="15.979" height="24.857" viewBox="0 0 15.979 24.857"><defs><linearGradient id="jph3z208pa" x1=".5" x2=".5" y2="1" gradientUnits="objectBoundingBox"><stop offset="0" stop-color="#61db66"/><stop offset="1" stop-color="#02b107"/></linearGradient></defs><g><path fill="url(#jph3z208pa)" d="M-736.652-3166.826a.888.888 0 0 1-.888-.888.888.888 0 0 1 .888-.887h2.663v-3.6a8 8 0 0 1-7.1-7.94v-3.55a.888.888 0 0 1 .887-.888.889.889 0 0 1 .888.888v3.55a6.221 6.221 0 0 0 6.214 6.215 6.221 6.221 0 0 0 6.214-6.215v-3.55a.888.888 0 0 1 .887-.888.889.889 0 0 1 .888.888v3.55a8 8 0 0 1-7.1 7.94v3.6h2.663a.888.888 0 0 1 .887.887.888.888 0 0 1-.887.888zm-.888-13.316v-7.1a4.444 4.444 0 0 1 4.439-4.439 4.444 4.444 0 0 1 4.439 4.439v7.1a4.444 4.444 0 0 1-4.439 4.439 4.444 4.444 0 0 1-4.439-4.439z" transform="translate(-242 -60.986) translate(983.091 3252.669)"/></g></svg>