<svg id="sun_dark" data-name="sun dark" xmlns="http://www.w3.org/2000/svg" width="28.793" height="28.793" viewBox="0 0 28.793 28.793">
  <circle id="Elipse_7" data-name="Elipse 7" cx="5.562" cy="5.562" r="5.562" transform="translate(8.834 8.834)" fill="#51557e"/>
  <g id="Grupo_1827" data-name="Grupo 1827">
    <path id="Trazado_1315" data-name="Trazado 1315" d="M131.932,138.475a6.544,6.544,0,1,1,6.544-6.544A6.563,6.563,0,0,1,131.932,138.475Zm0-11.124a4.581,4.581,0,1,0,4.581,4.581A4.594,4.594,0,0,0,131.932,127.35Z" transform="translate(-117.535 -117.534)" fill="#51557e"/>
    <path id="Trazado_1316" data-name="Trazado 1316" d="M215.187,361.81a.964.964,0,0,1-.982-.982v-4.581a.982.982,0,0,1,1.963,0v4.581A.964.964,0,0,1,215.187,361.81Z" transform="translate(-200.79 -333.017)" fill="#51557e"/>
    <path id="Trazado_1317" data-name="Trazado 1317" d="M215.187,6.544a.964.964,0,0,1-.982-.982V.982a.982.982,0,0,1,1.963,0V5.562A.964.964,0,0,1,215.187,6.544Z" transform="translate(-200.79)" fill="#51557e"/>
    <path id="Trazado_1318" data-name="Trazado 1318" d="M5.562,216.168H.982a.982.982,0,0,1,0-1.963H5.562a.982.982,0,0,1,0,1.963Z" transform="translate(0 -200.79)" fill="#51557e"/>
    <path id="Trazado_1319" data-name="Trazado 1319" d="M360.828,216.168h-4.581a.982.982,0,0,1,0-1.963h4.581a.982.982,0,0,1,0,1.963Z" transform="translate(-333.017 -200.79)" fill="#51557e"/>
    <path id="Trazado_1320" data-name="Trazado 1320" d="M64.721,320.108a.982.982,0,0,1-.687-1.669l3.108-3.108a.972.972,0,0,1,1.374,1.374l-3.108,3.108A.942.942,0,0,1,64.721,320.108Z" transform="translate(-59.748 -295.307)" fill="#51557e"/>
    <path id="Trazado_1321" data-name="Trazado 1321" d="M316.019,68.81a.982.982,0,0,1-.687-1.669l3.108-3.108a.972.972,0,1,1,1.374,1.374l-3.108,3.108A.942.942,0,0,1,316.019,68.81Z" transform="translate(-295.308 -59.747)" fill="#51557e"/>
    <path id="Trazado_1322" data-name="Trazado 1322" d="M67.829,68.811a.941.941,0,0,1-.687-.294l-3.108-3.108a.972.972,0,0,1,1.374-1.374l3.108,3.108a.982.982,0,0,1-.687,1.669Z" transform="translate(-59.748 -59.748)" fill="#51557e"/>
    <path id="Trazado_1323" data-name="Trazado 1323" d="M319.127,320.108a.942.942,0,0,1-.687-.294l-3.108-3.108a.972.972,0,0,1,1.374-1.374l3.108,3.108a.982.982,0,0,1-.687,1.669Z" transform="translate(-295.308 -295.307)" fill="#51557e"/>
  </g>
</svg>
