<svg xmlns="http://www.w3.org/2000/svg" id="sun_dark" width="28.793" height="28.793" data-name="sun dark" viewBox="0 0 28.793 28.793"><circle id="Elipse_7" cx="5.562" cy="5.562" r="5.562" fill="#51557e" data-name="Elipse 7" transform="translate(8.834 8.834)"/><g id="Grupo_1827" data-name="Grupo 1827"><path id="Trazado_1315" fill="#51557e" d="M131.932,138.475a6.544,6.544,0,1,1,6.544-6.544A6.563,6.563,0,0,1,131.932,138.475Zm0-11.124a4.581,4.581,0,1,0,4.581,4.581A4.594,4.594,0,0,0,131.932,127.35Z" data-name="Trazado 1315" transform="translate(-117.535 -117.534)"/><path id="Trazado_1316" fill="#51557e" d="M215.187,361.81a.964.964,0,0,1-.982-.982v-4.581a.982.982,0,0,1,1.963,0v4.581A.964.964,0,0,1,215.187,361.81Z" data-name="Trazado 1316" transform="translate(-200.79 -333.017)"/><path id="Trazado_1317" fill="#51557e" d="M215.187,6.544a.964.964,0,0,1-.982-.982V.982a.982.982,0,0,1,1.963,0V5.562A.964.964,0,0,1,215.187,6.544Z" data-name="Trazado 1317" transform="translate(-200.79)"/><path id="Trazado_1318" fill="#51557e" d="M5.562,216.168H.982a.982.982,0,0,1,0-1.963H5.562a.982.982,0,0,1,0,1.963Z" data-name="Trazado 1318" transform="translate(0 -200.79)"/><path id="Trazado_1319" fill="#51557e" d="M360.828,216.168h-4.581a.982.982,0,0,1,0-1.963h4.581a.982.982,0,0,1,0,1.963Z" data-name="Trazado 1319" transform="translate(-333.017 -200.79)"/><path id="Trazado_1320" fill="#51557e" d="M64.721,320.108a.982.982,0,0,1-.687-1.669l3.108-3.108a.972.972,0,0,1,1.374,1.374l-3.108,3.108A.942.942,0,0,1,64.721,320.108Z" data-name="Trazado 1320" transform="translate(-59.748 -295.307)"/><path id="Trazado_1321" fill="#51557e" d="M316.019,68.81a.982.982,0,0,1-.687-1.669l3.108-3.108a.972.972,0,1,1,1.374,1.374l-3.108,3.108A.942.942,0,0,1,316.019,68.81Z" data-name="Trazado 1321" transform="translate(-295.308 -59.747)"/><path id="Trazado_1322" fill="#51557e" d="M67.829,68.811a.941.941,0,0,1-.687-.294l-3.108-3.108a.972.972,0,0,1,1.374-1.374l3.108,3.108a.982.982,0,0,1-.687,1.669Z" data-name="Trazado 1322" transform="translate(-59.748 -59.748)"/><path id="Trazado_1323" fill="#51557e" d="M319.127,320.108a.942.942,0,0,1-.687-.294l-3.108-3.108a.972.972,0,0,1,1.374-1.374l3.108,3.108a.982.982,0,0,1-.687,1.669Z" data-name="Trazado 1323" transform="translate(-295.308 -295.307)"/></g></svg>