<svg xmlns="http://www.w3.org/2000/svg" id="sun" width="28.793" height="28.793" viewBox="0 0 28.793 28.793">
    <defs>
        <style>
            .cls-1{fill:#51557e}
        </style>
    </defs>
    <circle id="Elipse_7" cx="5.562" cy="5.562" r="5.562" class="cls-1" transform="translate(8.834 8.834)"/>
    <g id="Grupo_1827">
        <path id="Trazado_1315" d="M131.932 138.475a6.544 6.544 0 1 1 6.544-6.544 6.563 6.563 0 0 1-6.544 6.544zm0-11.124a4.581 4.581 0 1 0 4.581 4.581 4.594 4.594 0 0 0-4.581-4.582z" class="cls-1" transform="translate(-117.535 -117.534)"/>
        <path id="Trazado_1316" d="M215.187 361.81a.964.964 0 0 1-.982-.982v-4.581a.982.982 0 0 1 1.963 0v4.581a.964.964 0 0 1-.981.982z" class="cls-1" transform="translate(-200.79 -333.017)"/>
        <path id="Trazado_1317" d="M215.187 6.544a.964.964 0 0 1-.982-.982V.982a.982.982 0 0 1 1.963 0v4.58a.964.964 0 0 1-.981.982z" class="cls-1" transform="translate(-200.79)"/>
        <path id="Trazado_1318" d="M5.562 216.168H.982a.982.982 0 0 1 0-1.963h4.58a.982.982 0 0 1 0 1.963z" class="cls-1" transform="translate(0 -200.79)"/>
        <path id="Trazado_1319" d="M360.828 216.168h-4.581a.982.982 0 0 1 0-1.963h4.581a.982.982 0 0 1 0 1.963z" class="cls-1" transform="translate(-333.017 -200.79)"/>
        <path id="Trazado_1320" d="M64.721 320.108a.982.982 0 0 1-.687-1.669l3.108-3.108a.972.972 0 0 1 1.374 1.374l-3.108 3.108a.942.942 0 0 1-.687.295z" class="cls-1" transform="translate(-59.748 -295.307)"/>
        <path id="Trazado_1321" d="M316.019 68.81a.982.982 0 0 1-.687-1.669l3.108-3.108a.972.972 0 1 1 1.374 1.374l-3.108 3.108a.942.942 0 0 1-.687.295z" class="cls-1" transform="translate(-295.308 -59.747)"/>
        <path id="Trazado_1322" d="M67.829 68.811a.941.941 0 0 1-.687-.294l-3.108-3.108a.972.972 0 0 1 1.374-1.374l3.108 3.108a.982.982 0 0 1-.687 1.669z" class="cls-1" transform="translate(-59.748 -59.748)"/>
        <path id="Trazado_1323" d="M319.127 320.108a.942.942 0 0 1-.687-.294l-3.108-3.108a.972.972 0 0 1 1.374-1.374l3.108 3.108a.982.982 0 0 1-.687 1.669z" class="cls-1" transform="translate(-295.308 -295.307)"/>
    </g>
</svg>
