<svg xmlns="http://www.w3.org/2000/svg" width="24.211" height="23" viewBox="0 0 24.211 23">
    <defs>
        <linearGradient id="csbj1jtfia" x1=".054" x2=".823" y1="-.263" y2="1.078" gradientUnits="objectBoundingBox">
            <stop offset="0" stop-color="#8be8ff"/>
            <stop offset="1" stop-color="#00bdec"/>
        </linearGradient>
    </defs>
    <path fill="url(#csbj1jtfia)" d="M12.105 1.5C5.43 1.5 0 6.387 0 12.395a10.071 10.071 0 0 0 1.924 5.893c-.238 2.638-.878 4.6-1.806 5.524A.4.4 0 0 0 .4 24.5a.378.378 0 0 0 .056 0 21.556 21.556 0 0 0 6.706-2.154 13.135 13.135 0 0 0 4.94.948c6.675 0 12.105-4.887 12.105-10.895S18.78 1.5 12.105 1.5zM6.456 14.009a1.614 1.614 0 1 1 1.614-1.614 1.616 1.616 0 0 1-1.614 1.614zm5.649 0a1.614 1.614 0 1 1 1.614-1.614 1.616 1.616 0 0 1-1.614 1.614zm5.649 0a1.614 1.614 0 1 1 1.614-1.614 1.616 1.616 0 0 1-1.614 1.614z" transform="translate(0 -1.5)"/>
</svg>
