<svg xmlns="http://www.w3.org/2000/svg" id="white_paper_icon" width="15.164" height="19.598" viewBox="0 0 15.164 19.598">
    <defs>
        <clipPath id="clip-path">
            <path id="Rectángulo_333" d="M0 0H15.164V19.497H0z" class="cls-1"/>
        </clipPath>
        <style>
            .cls-1{fill:#fff}
        </style>
    </defs>
    <path id="Trazado_1334" d="M115.1 0v4.512h4.189z" class="cls-1" transform="translate(-104.358)"/>
    <g id="Grupo_2467" transform="translate(0 .101)">
        <g id="Grupo_2466" clip-path="url(#clip-path)">
            <path id="Trazado_1335" d="M9.631 0H1.1A1.1 1.1 0 0 0 0 1.1v17.423a1.1 1.1 0 0 0 1.1 1.1h12.5a1.1 1.1 0 0 0 1.1-1.1V5.477H9.631zm2.88 13.344a.943.943 0 0 1-.116.985 1.18 1.18 0 0 1-.853.537 2.489 2.489 0 0 1-1.742-.729c-.056-.05-.467-.418-1.007-.961a12.6 12.6 0 0 0-2.968.506c-.238.458-.48.884-.716 1.258a7.4 7.4 0 0 1-.939 1.237c-.8.809-1.473.631-1.778-.026a1.277 1.277 0 0 1 .086-1.236 5.36 5.36 0 0 1 2.794-1.883 24.469 24.469 0 0 0 1.157-2.706 5.169 5.169 0 0 1-.571-1.185C5.4 7.652 5.82 6.566 6.446 6.3c.358-.153.875-.076 1.249.595.3.534.163 1.653-.4 3.328a17.571 17.571 0 0 0 1.816 2.152c1.008-.023 2.952.066 3.4.969" class="cls-1" transform="translate(.235 -.101)"/>
            <path id="Trazado_1336" d="M33.6 155.966a.5.5 0 0 0-.033.476.342.342 0 0 0 .07.108c.053-.008.454-.114 1.29-1.449q.107-.17.215-.355a3.718 3.718 0 0 0-1.542 1.22" class="cls-1" transform="translate(-30.231 -140.724)"/>
            <path id="Trazado_1337" d="M68.88 123.442a13.724 13.724 0 0 1 1.8-.3c-.374-.407-.762-.858-1.112-1.321-.208.542-.441 1.091-.688 1.621" class="cls-1" transform="translate(-62.358 -110.804)"/>
            <path id="Trazado_1338" d="M71.007 79.233a3.682 3.682 0 0 0 .247-2.02c-.1-.174-.2-.255-.24-.255h-.011c-.182.077-.491.752-.145 1.886a3.159 3.159 0 0 0 .149.387" class="cls-1" transform="translate(-64.014 -70.036)"/>
            <path id="Trazado_1339" d="M109.114 144.734a1.912 1.912 0 0 0 1.122.528.387.387 0 0 0 .291-.2c.041-.061.086-.144.062-.192-.084-.17-.648-.448-1.856-.517h-.026c.242.23.4.368.4.374" class="cls-1" transform="translate(-98.55 -131.282)"/>
        </g>
    </g>
</svg>
