<svg xmlns="http://www.w3.org/2000/svg" width="19.396" height="19.396" viewBox="0 0 19.396 19.396">
    <defs>
        <style>
            .cls-1{fill:#f3ba2f}
        </style>
    </defs>
    <g id="bnb">
        <path id="Trazado_171" d="M5.937 8.15L9.7 4.384l3.769 3.768 2.195-2.192L9.7 0 3.745 5.959 5.937 8.15M.006 9.7L2.2 7.506 4.389 9.7 2.2 11.889zm5.931 1.548L9.7 15.012l3.768-3.768 2.193 2.191L9.7 19.4l-5.955-5.963 2.195-2.189M15.018 9.7l2.192-2.193L19.4 9.7l-2.19 2.19z" class="cls-1" transform="translate(-.006)"/>
        <path id="Trazado_172" d="M775 772.774l-2.224-2.224-1.643 1.644-.189.189-.389.39 2.22 2.227 2.225-2.224" class="cls-1" transform="translate(-763.077 -763.077)"/>
    </g>
</svg>
