<svg xmlns="http://www.w3.org/2000/svg" width="47" height="39" viewBox="0 0 47 39">
    <g>
        <g fill="#f7efde">
            <path d="M39 38.5H8C3.865 38.5.5 35.135.5 31V.5h46V31c0 4.135-3.365 7.5-7.5 7.5z" transform="translate(-1357 -619) translate(1357 619)"/>
            <path fill="#a88e53" d="M39 38c3.86 0 7-3.14 7-7V1H1v30c0 3.86 3.14 7 7 7h31m0 1H8c-4.411 0-8-3.59-8-8V0h47v31c0 4.41-3.589 8-8 8z" transform="translate(-1357 -619) translate(1357 619)"/>
        </g>
        <path fill="#a88e53" d="M15.365 9.957H9.5l5.061-8.9A.708.708 0 0 0 13.949 0H5.455a.708.708 0 0 0-.672.485L.536 13.273a.708.708 0 0 0 .672.931h6.007l-3.827 8.972a.708.708 0 0 0 1.181.747l11.326-12.789a.709.709 0 0 0-.53-1.177zM6.4 19.717l2.535-5.943a.708.708 0 0 0-.651-.986h-6.1L5.966 1.416h6.766l-5.061 8.9a.708.708 0 0 0 .615 1.058h5.506zm0 0" transform="translate(-1357 -619) translate(1372.5 626)"/>
    </g>
</svg>
