<svg xmlns="http://www.w3.org/2000/svg" width="21.62" height="19.086" viewBox="0 0 21.62 19.086"><g><g><g><path fill="#7d8ea3" stroke="#7d8ea3" stroke-width=".6" d="M20.76 37.271l-8.7-6.158a.616.616 0 0 0-.972.5v3.095A11.7 11.7 0 0 0 0 46.4v2.463a.616.616 0 0 0 1.208.169L1.3 48.7a10.865 10.865 0 0 1 9.782-7.826v3.061a.616.616 0 0 0 .972.5l8.7-6.158a.616.616 0 0 0 0-1.005zm-8.444 5.471v-2.5a.616.616 0 0 0-.616-.616 12.042 12.042 0 0 0-10.443 6.037A10.483 10.483 0 0 1 11.7 35.926a.616.616 0 0 0 .616-.616v-2.5l7.022 4.968z" transform="translate(.3 .311) translate(0 -31)"/></g></g></g></svg>