<svg xmlns="http://www.w3.org/2000/svg" width="23.12" height="12.756" viewBox="0 0 23.12 12.756">
    <defs>
        <clipPath id="clip-path">
            <path id="Trazado_1857" d="M322.585-1035.285a6.9 6.9 0 0 1-3.847-1.369s1.892-2.637 4.328-2.9c2.116-.234 3.3.7 3.4 1.469.064.768-.77 2.671-3.879 2.8m-9.394 2c-3.11 1.035-4.424-.5-4.649-1.236s.225-1.9 2.565-2.571c2.307-.667 5.1 1.168 5.1 1.168a6.67 6.67 0 0 1-3.013 2.637m9.871-9.716c-5.1.067-6.188 5.176-6.188 5.176-1.8-1.8-3.559-2.739-6.123-2.471a5.6 5.6 0 0 0-4.745 4.607 5.522 5.522 0 0 0 5.675 5.442c4.072 0 5.771-4.44 5.771-4.44a6.935 6.935 0 0 0 5.515 2.537c4.584-.1 5.9-3.272 6.123-4.842a5.519 5.519 0 0 0-6.027-6.01" class="cls-1" transform="translate(-306 1043)"/>
        </clipPath>
        <clipPath id="clip-path-2">
            <path id="Trazado_1856" d="M0-219h1530.675v-861H0z" class="cls-1" transform="translate(0 1080)"/>
        </clipPath>
        <style>
            .cls-1{fill:#00bdec}
        </style>
    </defs>
    <g id="woop" clip-path="url(#clip-path)">
        <g id="Grupo_2818" clip-path="url(#clip-path-2)" transform="translate(-243.951 -29.497)">
            <g id="Grupo_2817">
                <path id="Trazado_1855" d="M-306-37h1530.675v861H-306z" class="cls-1" transform="translate(306 37)"/>
            </g>
        </g>
    </g>
</svg>
