<svg xmlns="http://www.w3.org/2000/svg" width="691.386" height="298.699" viewBox="0 0 691.386 298.699">
    <path fill="#fff" d="M227.515 355.516c44.41 0 114.052-22.879 196.384-130.125 27.561 34.966 110.44 130.125 196.307 130.125 82.344 0 149.351-67 149.351-149.347S702.551 56.817 620.206 56.817c-44.394 0-114.032 22.887-196.388 130.129C396.262 151.98 313.387 56.829 227.515 56.829c-82.348 0-149.343 66.991-149.343 149.339s66.995 149.348 149.343 149.348zM620.206 79.973a126.193 126.193 0 0 1 0 252.386c-79.05 0-161.048-99.234-181.883-126.223C516.657 101.987 580.366 79.973 620.206 79.973zm-392.691.012c79.054 0 161.056 99.226 181.888 126.211-78.314 104.149-142.035 126.163-181.888 126.163a126.187 126.187 0 1 1 0-252.374z" transform="translate(-78.172 -56.817)"/>
</svg>
